<?xml version="1.0" encoding="utf-8"?>
<!-- Generator: Adobe Illustrator 24.0.3, SVG Export Plug-In . SVG Version: 6.00 Build 0)  -->
<svg version="1.1" id="레이어_1" xmlns="http://www.w3.org/2000/svg" xmlns:xlink="http://www.w3.org/1999/xlink" x="0px"
	 y="0px" viewBox="0 0 19.7 26" style="enable-background:new 0 0 19.7 26;" xml:space="preserve">
<style type="text/css">
	.st0{filter:url(#Adobe_OpacityMaskFilter);}
	.st1{fill-rule:evenodd;clip-rule:evenodd;fill:#FFFFFF;}
	.st2{mask:url(#b_1_);fill-rule:evenodd;clip-rule:evenodd;fill:#00A2FF;}
	.st3{fill-rule:evenodd;clip-rule:evenodd;fill:#FFC600;}
	.st4{fill-rule:evenodd;clip-rule:evenodd;fill:#FAFDFD;}
	.st5{fill-rule:evenodd;clip-rule:evenodd;fill:#50505F;}
	.st6{fill-rule:evenodd;clip-rule:evenodd;fill:#1EDA69;}
	.st7{fill-rule:evenodd;clip-rule:evenodd;fill:#0087FF;}
</style>
<g transform="translate(0 .029)">
	<defs>
		<filter id="Adobe_OpacityMaskFilter" filterUnits="userSpaceOnUse" x="0" y="0.1" width="17" height="25.7">
			<feColorMatrix  type="matrix" values="1 0 0 0 0  0 1 0 0 0  0 0 1 0 0  0 0 0 1 0"/>
		</filter>
	</defs>
	<mask maskUnits="userSpaceOnUse" x="0" y="0.1" width="17" height="25.7" id="b_1_">
		<g class="st0">
			<path id="a_1_" class="st1" d="M0,0.1h17v25.7H0V0.1z"/>
		</g>
	</mask>
	<path class="st2" d="M17,11.9c-1.9,0-5.4,0-5.4,0V0.6h-0.8C6.3,0.6,5,0.6,3,0.1c0,0,0,2,2.1,3c-1.8,1.8-2.4,4.4-2.4,7.1
		c0,2.7-0.3,4.8-0.6,6.4C1.4,20.2,0,23,0,23c1.1,0.3,2.3,0.3,3.4,0.1v2.7c7.4,0,13.6-4.3,13.6-12.4V11.9"/>
</g>
<path class="st3" d="M11.6,9.1v5.4c2.2,0,4.1-1,5.4-2.6L11.6,9.1"/>
<path class="st4" d="M11.6,14.5c-3.2,0-5.9-2.6-5.9-5.9c0-3.2,2.6-5.9,5.9-5.9V14.5z"/>
<path class="st5" d="M10.3,7.8c0,0.7-0.6,1.4-1.4,1.4c-0.7,0-1.4-0.6-1.4-1.4s0.6-1.4,1.4-1.4C9.7,6.4,10.3,7,10.3,7.8"/>
<path class="st6" d="M15,1.4c-1.1-0.5-2.2-0.7-3.4-0.7v8.5h8V8.6C19.7,5.5,17.8,2.7,15,1.4"/>
<path class="st7" d="M10,17.8c-1.1,2.8-3.6,4.9-6.5,5.4l0,2.7C7.2,25.1,10,21.7,10,17.8"/>
</svg>
