<?xml version="1.0" encoding="utf-8"?>
<!-- Generator: Adobe Illustrator 24.0.3, SVG Export Plug-In . SVG Version: 6.00 Build 0)  -->
<svg version="1.1" id="레이어_1" xmlns="http://www.w3.org/2000/svg" xmlns:xlink="http://www.w3.org/1999/xlink" x="0px"
	 y="0px" viewBox="0 0 191.9 191.9" style="enable-background:new 0 0 191.9 191.9;" xml:space="preserve">
<style type="text/css">
	.st0{fill:#D8E2EF;}
</style>
<g>
	<path class="st0" d="M174.9,191.2c-9.3,0.6-44.7,1.1-54.1,0s-15.5-6.2-16.3-16.3c-0.9-10.1-0.9-43.9,0-54.1
		c0.9-10.2,6.5-15.5,16.3-16.3s44.1-0.9,54.1,0c9.9,0.9,15.7,6.5,16.3,16.3c0.6,9.9,1.1,44.1,0,54.1
		C190.1,184.8,184.2,190.6,174.9,191.2z"/>
	<path class="st0" d="M71.1,87.4c-9.3,0.6-44.7,1.1-54.1,0S1.5,81.2,0.7,71.1c-0.9-10.1-0.9-43.9,0-54.1S7.1,1.5,17,0.7
		s44.1-0.9,54.1,0S86.8,7.1,87.4,17c0.6,9.9,1.1,44.1,0,54.1S80.3,86.8,71.1,87.4z"/>
	<path class="st0" d="M191.9,44c0-0.2,0-0.4,0-0.6c-0.1-10.8-0.3-21.6-0.5-26.4c-0.5-9.9-5-15.4-12.7-16.3
		c-7.8-0.9-22.3-0.8-30.1-0.7l0,0c-0.2,0-0.4,0-0.7,0c-24.3,0-44,19.7-44,44c0,0,0,0,0,0c0,0,0,0,0,0c0,0.8,0,1.5,0.1,2.2
		c0,0.1,0,0.3,0,0.4c0,0.6,0.1,1.2,0.1,1.8c0,0.2,0,0.3,0.1,0.5c0.1,0.6,0.1,1.1,0.2,1.7c0,0.2,0.1,0.4,0.1,0.6
		c0.1,0.5,0.2,1.1,0.3,1.6c0,0.2,0.1,0.4,0.1,0.6c0.1,0.5,0.2,1,0.4,1.5c0.1,0.2,0.1,0.4,0.2,0.6c0.1,0.5,0.3,1,0.4,1.5
		c0.1,0.2,0.1,0.4,0.2,0.6c0.2,0.5,0.3,0.9,0.5,1.4c0.1,0.2,0.2,0.4,0.3,0.7c0.2,0.4,0.3,0.9,0.5,1.3c0.1,0.2,0.2,0.4,0.3,0.7
		c0.2,0.4,0.4,0.8,0.6,1.3c0.1,0.2,0.2,0.5,0.3,0.7c0.2,0.4,0.4,0.8,0.6,1.2c0.1,0.2,0.3,0.5,0.4,0.7c0.2,0.4,0.4,0.8,0.6,1.1
		c0.1,0.2,0.3,0.5,0.5,0.7c0.2,0.4,0.4,0.7,0.7,1c0.2,0.2,0.3,0.5,0.5,0.7c0.2,0.3,0.5,0.7,0.7,1c0.2,0.3,0.4,0.5,0.6,0.7
		c0.2,0.3,0.5,0.6,0.7,0.9c0.2,0.3,0.4,0.5,0.6,0.8c0.2,0.3,0.5,0.6,0.7,0.8c0.2,0.3,0.5,0.5,0.7,0.8c0.2,0.3,0.5,0.5,0.7,0.8
		c0.3,0.3,0.5,0.5,0.8,0.8c0.2,0.2,0.5,0.5,0.7,0.7c0.3,0.3,0.6,0.5,0.8,0.8c0.2,0.2,0.5,0.4,0.7,0.6c0.3,0.3,0.6,0.5,0.9,0.7
		c0.2,0.2,0.5,0.4,0.7,0.6c0.3,0.2,0.7,0.5,1,0.7c0.2,0.2,0.5,0.3,0.7,0.5c0.3,0.2,0.7,0.5,1.1,0.7c0.2,0.1,0.5,0.3,0.7,0.4
		c0.4,0.2,0.7,0.5,1.1,0.7c0.2,0.1,0.4,0.3,0.7,0.4c0.4,0.2,0.8,0.4,1.2,0.6c0.2,0.1,0.4,0.2,0.7,0.3c0.4,0.2,0.8,0.4,1.3,0.6
		c0.2,0.1,0.4,0.2,0.6,0.3c0.4,0.2,0.9,0.4,1.3,0.5c0.2,0.1,0.4,0.2,0.6,0.3c0.5,0.2,0.9,0.3,1.4,0.5c0.2,0.1,0.4,0.1,0.6,0.2
		c0.5,0.2,0.9,0.3,1.4,0.4c0.2,0.1,0.4,0.1,0.6,0.2c0.5,0.1,1,0.3,1.5,0.4c0.2,0,0.4,0.1,0.6,0.1c0.5,0.1,1,0.2,1.5,0.3
		c0.2,0,0.4,0.1,0.6,0.1c0.5,0.1,1,0.2,1.5,0.2c0.2,0,0.4,0.1,0.6,0.1c0.5,0.1,1,0.1,1.6,0.2c0.2,0,0.4,0,0.6,0c0.5,0,1,0.1,1.6,0.1
		c0.1,0,0.2,0,0.3,0c0.1,0,0.1,0,0.2,0c5,0.3,26.9-0.2,31.9-0.7c7.2-0.6,11.8-6.4,12.7-16.3c0.4-4.9,0.6-15.7,0.5-26.6
		C191.9,44.3,191.9,44.2,191.9,44z"/>
	<path class="st0" d="M0.9,182.9c6.5,11.9,79.7,11.9,86.3,0S63.6,103.8,44,103.8S-5.6,171,0.9,182.9z"/>
</g>
</svg>
