<svg id="레이어_1" data-name="레이어 1" xmlns="http://www.w3.org/2000/svg" viewBox="0 0 1021.41 191.89"><defs><style>.cls-1{fill:#4f9add;}.cls-2{fill:#71d0d8;}.cls-3{fill:#ef6c64;}.cls-4{fill:#f0c065;}.cls-5{fill:#333;}</style></defs><title>모둠 로고 최종안 풀버전</title><path class="cls-1" d="M662.37,1095.25c-9.26.6-44.73,1.14-54.08,0s-15.45-6.19-16.33-16.33-.87-43.86,0-54.08,6.46-15.46,16.33-16.33,44.14-.87,54.08,0,15.73,6.46,16.33,16.33,1.15,44.13,0,54.08S671.64,1094.65,662.37,1095.25Z" transform="translate(-487.45 -904.03)"/><path class="cls-2" d="M558.51,991.42c-9.27.61-44.73,1.15-54.08,0S489,985.23,488.1,975.09s-.87-43.86,0-54.08,6.46-15.46,16.33-16.33,44.13-.87,54.08,0,15.73,6.46,16.33,16.33,1.15,44.13,0,54.08S567.78,990.82,558.51,991.42Z" transform="translate(-487.45 -904.03)"/><path class="cls-3" d="M679.37,948.06c0-.19,0-.38,0-.58-.06-10.84-.28-21.57-.51-26.42-.47-9.85-5-15.43-12.73-16.3S643.77,904,636,904.1h-.69a44,44,0,0,0-44,44h0c0,.75,0,1.5.05,2.24,0,.13,0,.25,0,.38,0,.62.08,1.23.14,1.84,0,.17.05.34.07.51q.09.84.21,1.68c0,.19.07.37.1.55.09.54.18,1.07.28,1.6,0,.2.09.39.14.59.11.51.22,1,.35,1.53.05.2.11.4.17.61.13.49.27,1,.42,1.46.06.21.14.42.21.63.15.47.3.94.47,1.4.08.22.17.43.25.65.17.45.34.89.53,1.33.09.23.2.45.3.67.18.42.37.85.57,1.26l.34.69c.2.4.4.8.61,1.19l.4.71c.21.37.42.75.65,1.12s.3.48.45.72.44.7.67,1l.51.74.69,1c.19.25.38.5.58.74s.46.61.71.91.42.5.63.75.47.55.72.82.47.51.7.76l.72.76.78.75.72.69.84.75c.24.21.47.42.72.62s.6.5.91.74l.71.56,1,.72.7.49c.35.24.7.48,1.06.71l.68.44,1.12.67.68.38c.39.22.79.44,1.19.64l.66.34c.41.21.83.4,1.25.6l.65.29,1.31.55.63.25,1.37.5.63.21,1.42.44.62.17c.49.14,1,.26,1.46.38l.62.14c.5.11,1,.22,1.5.31l.63.11q.75.14,1.53.24l.63.08c.51.06,1,.12,1.55.16l.65,0c.52,0,1,.07,1.56.08l.28,0,.16,0c5,.27,26.87-.23,31.94-.66,7.23-.6,11.84-6.37,12.73-16.3.44-4.91.56-15.73.52-26.61Z" transform="translate(-487.45 -904.03)"/><path class="cls-4" d="M488.35,1087c6.51,11.94,79.75,11.94,86.26,0s-23.55-79.12-43.13-79.12S481.84,1075,488.35,1087Z" transform="translate(-487.45 -904.03)"/><path class="cls-5" d="M893.77,1018.28a1.79,1.79,0,0,1,.21,1v49.79a10.28,10.28,0,0,1-10.25,10.25,10.11,10.11,0,0,1-10-10.25v-51.63a20.9,20.9,0,0,0-41.79,0v51.63a10.11,10.11,0,0,1-10,10.25,10.28,10.28,0,0,1-10.25-10.25v-51.63a20.8,20.8,0,0,0-41.59,0v51.63a10.15,10.15,0,1,1-20.29,0v-51.63a41.14,41.14,0,0,1,41.19-41,40.57,40.57,0,0,1,30.94,14.14,40.53,40.53,0,0,1,30.93-14.14,41.14,41.14,0,0,1,41.19,41C894,1017.87,894,1018.08,893.77,1018.28Z" transform="translate(-487.45 -904.03)"/><path class="cls-5" d="M905.45,1027.5a51.43,51.43,0,1,1,51.43,51.43A51.47,51.47,0,0,1,905.45,1027.5Zm20.29,0a31.15,31.15,0,1,0,31.14-31.14A31.25,31.25,0,0,0,925.74,1027.5Z" transform="translate(-487.45 -904.03)"/><path class="cls-5" d="M1103.17,986.11v-51a10.15,10.15,0,0,1,20.29,0v92a51.33,51.33,0,1,1-20.29-41Zm0,41v-.2a31.24,31.24,0,1,0,0,.2Z" transform="translate(-487.45 -904.03)"/><path class="cls-5" d="M1135.13,1027.5a51.43,51.43,0,1,1,51.43,51.43A51.47,51.47,0,0,1,1135.13,1027.5Zm20.29,0a31.15,31.15,0,1,0,31.14-31.14A31.25,31.25,0,0,0,1155.42,1027.5Z" transform="translate(-487.45 -904.03)"/><path class="cls-5" d="M1250.07,1027.5a51.43,51.43,0,1,1,51.43,51.43A51.47,51.47,0,0,1,1250.07,1027.5Zm20.29,0a31.15,31.15,0,1,0,31.14-31.14A31.25,31.25,0,0,0,1270.36,1027.5Z" transform="translate(-487.45 -904.03)"/><path class="cls-5" d="M1508.65,1018.28a1.87,1.87,0,0,1,.2,1v49.79a10.27,10.27,0,0,1-10.24,10.25,10.11,10.11,0,0,1-10-10.25v-51.63a20.9,20.9,0,0,0-41.8,0v51.63a10.11,10.11,0,0,1-10,10.25,10.27,10.27,0,0,1-10.24-10.25v-51.63a20.8,20.8,0,0,0-41.6,0v51.63a10.14,10.14,0,1,1-20.28,0v-51.63a41.14,41.14,0,0,1,41.18-41,40.55,40.55,0,0,1,30.94,14.14,40.55,40.55,0,0,1,30.94-14.14,41.14,41.14,0,0,1,41.18,41C1508.85,1017.87,1508.85,1018.08,1508.65,1018.28Z" transform="translate(-487.45 -904.03)"/></svg>