<svg id="레이어_1" data-name="레이어 1" xmlns="http://www.w3.org/2000/svg" viewBox="0 0 316.31 316.31"><defs><style>.cls-1{fill:#edf2f9;}.cls-2{fill:#d8e2ef;}</style></defs><title>모둠 로고 placeholder</title><rect class="cls-1" width="316.31" height="316.31"/><path class="cls-2" d="M411.4,608.82c-9.26.61-44.73,1.14-54.07,0s-15.46-6.19-16.34-16.33-.87-43.86,0-54.08,6.46-15.46,16.34-16.33,44.13-.87,54.07,0,15.73,6.46,16.34,16.33,1.14,44.13,0,54.08S420.67,608.22,411.4,608.82Z" transform="translate(-174.29 -352.39)"/><path class="cls-2" d="M307.54,505c-9.27.61-44.73,1.15-54.08,0S238,498.8,237.13,488.66s-.87-43.86,0-54.08,6.46-15.45,16.33-16.33,44.13-.87,54.08,0,15.73,6.46,16.33,16.33,1.15,44.13,0,54.08S316.81,504.39,307.54,505Z" transform="translate(-174.29 -352.39)"/><path class="cls-2" d="M428.41,461.63c0-.19,0-.38,0-.58-.06-10.84-.27-21.57-.51-26.42-.47-9.85-5-15.43-12.73-16.3s-22.35-.78-30.09-.66h-.69a44,44,0,0,0-44,44h0c0,.75,0,1.5.06,2.24,0,.13,0,.25,0,.38,0,.62.08,1.23.14,1.84,0,.17.05.34.07.51q.09.84.21,1.68c0,.19.07.37.1.55.09.54.18,1.07.28,1.6,0,.2.09.39.14.59.11.51.22,1,.35,1.53.05.2.12.4.17.61.13.49.27,1,.42,1.46.06.21.14.42.21.63.15.47.3.94.47,1.4.08.22.17.43.25.65.17.45.34.89.53,1.33.09.23.2.45.3.67.18.42.37.85.57,1.26l.34.69c.2.4.4.8.61,1.19l.4.71c.21.37.42.75.65,1.12s.3.48.45.72.44.7.67,1l.51.74c.23.32.46.65.7,1s.38.5.57.74.46.61.71.91.42.5.63.75l.72.82c.23.26.47.51.7.76s.48.51.73.76l.77.75.72.69.84.75.72.62c.3.25.6.5.91.74l.71.56,1,.72.7.5,1.06.7.68.44c.37.23.75.45,1.13.67l.67.39c.39.21.79.43,1.19.63l.66.34c.41.21.83.4,1.25.6l.65.29,1.31.55.64.25,1.36.5.63.21,1.42.44.62.17c.49.14,1,.26,1.46.38l.62.14c.5.11,1,.22,1.5.31l.63.11c.51.09,1,.17,1.53.24l.63.08c.51.06,1,.12,1.55.16l.65.05c.52,0,1,.07,1.56.08l.28,0,.16,0c5,.27,26.87-.23,31.94-.66,7.23-.6,11.84-6.37,12.73-16.3.44-4.91.56-15.73.52-26.61C428.4,461.89,428.41,461.76,428.41,461.63Z" transform="translate(-174.29 -352.39)"/><path class="cls-2" d="M237.38,600.54c6.51,11.94,79.75,11.94,86.26,0s-23.55-79.12-43.13-79.12S230.87,588.6,237.38,600.54Z" transform="translate(-174.29 -352.39)"/></svg>