<svg id="레이어_1" data-name="레이어 1" xmlns="http://www.w3.org/2000/svg" viewBox="0 0 762.06 154.88"><defs><style>.cls-1{fill:#344050;}</style></defs><title>typo_344050</title><path class="cls-1" d="M1003.8,1057.86a1.83,1.83,0,0,1,.21,1v50a10.32,10.32,0,0,1-10.29,10.29,10.14,10.14,0,0,1-10.07-10.29V1057a21,21,0,0,0-42,0v51.83a10.15,10.15,0,0,1-10.08,10.29,10.32,10.32,0,0,1-10.29-10.29V1057a20.88,20.88,0,0,0-41.75,0v51.83a10.19,10.19,0,1,1-20.37,0V1057a41.31,41.31,0,0,1,41.35-41.14,40.71,40.71,0,0,1,31.06,14.19,40.7,40.7,0,0,1,31.06-14.19A41.3,41.3,0,0,1,1004,1057C1004,1057.45,1004,1057.66,1003.8,1057.86Z" transform="translate(-859.2 -964.27)"/><path class="cls-1" d="M1015.53,1067.12a51.63,51.63,0,1,1,51.62,51.63A51.66,51.66,0,0,1,1015.53,1067.12Zm20.36,0a31.27,31.27,0,1,0,31.26-31.27A31.38,31.38,0,0,0,1035.89,1067.12Z" transform="translate(-859.2 -964.27)"/><path class="cls-1" d="M1214,1025.57V974.35a10.18,10.18,0,0,1,20.36,0v92.36a51.52,51.52,0,1,1-20.36-41.14Zm0,41.14v-.21a31.37,31.37,0,1,0,0,.21Z" transform="translate(-859.2 -964.27)"/><path class="cls-1" d="M1246.1,1067.12a51.63,51.63,0,1,1,51.62,51.63A51.66,51.66,0,0,1,1246.1,1067.12Zm20.36,0a31.27,31.27,0,1,0,31.26-31.27A31.38,31.38,0,0,0,1266.46,1067.12Z" transform="translate(-859.2 -964.27)"/><path class="cls-1" d="M1361.48,1067.12a51.63,51.63,0,1,1,51.63,51.63A51.66,51.66,0,0,1,1361.48,1067.12Zm20.36,0a31.27,31.27,0,1,0,31.27-31.27A31.38,31.38,0,0,0,1381.84,1067.12Z" transform="translate(-859.2 -964.27)"/><path class="cls-1" d="M1621.06,1057.86a1.9,1.9,0,0,1,.2,1v50a10.32,10.32,0,0,1-10.28,10.29,10.14,10.14,0,0,1-10.08-10.29V1057a21,21,0,0,0-42,0v51.83a10.15,10.15,0,0,1-10.08,10.29,10.32,10.32,0,0,1-10.28-10.29V1057a20.88,20.88,0,0,0-41.76,0v51.83a10.18,10.18,0,1,1-20.36,0V1057a41.3,41.3,0,0,1,41.34-41.14,40.71,40.71,0,0,1,31.06,14.19,40.71,40.71,0,0,1,31.06-14.19,41.3,41.3,0,0,1,41.34,41.14C1621.26,1057.45,1621.26,1057.66,1621.06,1057.86Z" transform="translate(-859.2 -964.27)"/></svg>